<svg width="86" height="33" viewBox="0 0 86 33" fill="none" xmlns="http://www.w3.org/2000/svg">
<g clip-path="url(#clip0)">
<path fill-rule="evenodd" clip-rule="evenodd" d="M75.0565 8.38151V14.4003H85.1988V17.2721H75.0565V25.0131H85.1988V27.8805H72.1403V5.5097H85.2831V8.38151H75.0565Z" fill="#292670"/>
<path fill-rule="evenodd" clip-rule="evenodd" d="M57.5949 8.38151V14.9773L60.9461 15.004C61.8693 15.0128 63.1343 14.964 64.0043 14.6178C64.6079 14.3781 65.0917 13.9964 65.4468 13.4504C65.8019 12.8956 65.9706 12.292 65.9706 11.635C65.9706 10.9914 65.8019 10.4055 65.4468 9.86845C65.1051 9.34913 64.6523 8.97185 64.0753 8.74104C63.2586 8.41702 61.9048 8.38595 61.0348 8.38595H57.5949V8.38151ZM61.8693 17.8269L69.6547 27.8805H66.0283L58.2518 17.8447H57.5904V27.8805H54.6743V5.5097H59.357C60.369 5.5097 61.3899 5.52302 62.3975 5.58516C63.0233 5.62067 63.7069 5.67393 64.3194 5.81597C65.651 6.12224 66.7784 6.77916 67.6573 7.83555C68.5672 8.92746 68.9489 10.2324 68.9489 11.6439C68.9489 12.8201 68.6826 13.9431 68.0612 14.9463C67.4487 15.9361 66.5787 16.6463 65.5179 17.1168C64.4348 17.5961 63.1077 17.7781 61.8693 17.8269Z" fill="#292670"/>
<path fill-rule="evenodd" clip-rule="evenodd" d="M22.3121 9.98384L20.0173 11.746L19.7865 11.4486C18.9121 10.3079 17.8335 9.39794 16.5374 8.77209C15.2236 8.1418 13.8121 7.86217 12.3562 7.86217C10.7184 7.86217 9.17818 8.24833 7.74894 9.05616C6.37296 9.83293 5.2633 10.8849 4.47322 12.252C3.66983 13.6457 3.3103 15.1682 3.3103 16.775C3.3103 19.2473 4.13144 21.369 5.9069 23.1045C7.72675 24.8799 9.95494 25.6434 12.485 25.6434C15.4544 25.6434 17.8646 24.4627 19.7954 22.2167L20.0262 21.946L22.321 23.6859L22.0858 23.9878C20.9628 25.417 19.5646 26.5133 17.9134 27.2768C16.1602 28.0935 14.2782 28.4353 12.3518 28.4353C8.72544 28.4353 5.5163 27.3034 3.115 24.5248C1.16199 22.2567 0.283142 19.5669 0.283142 16.5797C0.283142 13.3483 1.41056 10.5786 3.72753 8.32379C6.10664 6.01125 9.02727 4.97705 12.3296 4.97705C14.2915 4.97705 16.2001 5.34546 17.9623 6.21099C19.6267 7.0277 21.016 8.18619 22.0991 9.68645L22.3121 9.98384Z" fill="#292670"/>
<path fill-rule="evenodd" clip-rule="evenodd" d="M37.6521 6.43295C43.298 6.43295 47.8787 11.0092 47.8787 16.6596C47.8787 22.3055 43.3025 26.8862 37.6521 26.8862C32.0017 26.8862 27.4255 22.3055 27.4255 16.6596C27.4255 11.0092 32.0017 6.43295 37.6521 6.43295ZM37.6521 2.80658C45.2999 2.80658 51.5006 9.00736 51.5006 16.6551C51.5006 24.3029 45.2999 30.5037 37.6521 30.5037C30.0043 30.5037 23.8035 24.3029 23.8035 16.6551C23.7991 9.00736 29.9999 2.80658 37.6521 2.80658Z" fill="#BA141A"/>
<path fill-rule="evenodd" clip-rule="evenodd" d="M37.6521 9.38904C41.6691 9.38904 44.9226 12.6426 44.9226 16.6595C44.9226 20.6765 41.6691 23.93 37.6521 23.93C33.6351 23.93 30.3816 20.6721 30.3816 16.6595C30.3816 12.647 33.6351 9.38904 37.6521 9.38904Z" fill="#292670"/>
<path d="M37.985 2.81104H37.3148V30.5037H37.985V2.81104Z" fill="white"/>
<path d="M37.985 0.946777H37.3148V2.81101H37.985V0.946777Z" fill="#BA141A"/>
<path d="M37.985 30.5037H37.3148V32.368H37.985V30.5037Z" fill="#BA141A"/>
<path d="M51.4962 16.3222H23.8035V16.9924H51.4962V16.3222Z" fill="white"/>
<path d="M23.8035 16.3222H21.9393V16.9924H23.8035V16.3222Z" fill="#BA141A"/>
<path d="M53.3605 16.3222H51.4962V16.9924H53.3605V16.3222Z" fill="#BA141A"/>
</g>
<defs>
<clipPath id="clip0">
<rect width="85" height="31.4211" fill="white" transform="translate(0.283142 0.946777)"/>
</clipPath>
</defs>
</svg>
